<svg xmlns="http://www.w3.org/2000/svg" viewBox="0 0 1440 320"><path fill="#fac4a7" fill-opacity="1" d="M0,128L30,112C60,96,120,64,180,74.7C240,85,300,139,360,138.7C420,139,480,85,540,74.7C600,64,660,96,720,96C780,96,840,64,900,80C960,96,1020,160,1080,170.7C1140,181,1200,139,1260,106.7C1320,75,1380,53,1410,42.7L1440,32L1440,320L1410,320C1380,320,1320,320,1260,320C1200,320,1140,320,1080,320C1020,320,960,320,900,320C840,320,780,320,720,320C660,320,600,320,540,320C480,320,420,320,360,320C300,320,240,320,180,320C120,320,60,320,30,320L0,320Z"></path></svg>